<svg width="22" height="23" viewBox="0 0 22 23" fill="none" xmlns="http://www.w3.org/2000/svg">
<path d="M20.1626 20.4206V13.7144C20.1626 10.4341 19.465 7.90756 15.6783 7.90756C14.9677 7.88191 14.2635 8.05189 13.6407 8.39938C13.018 8.74688 12.4999 9.2589 12.1418 9.8809H12.0895V8.21015H8.49805V20.4159H12.2371V14.3762C12.2371 12.7852 12.535 11.2463 14.4811 11.2463C16.3988 11.2463 16.4272 13.0628 16.4272 14.4783V20.4187L20.1626 20.4206Z" fill="#D9D9D9"/>
<path d="M2.13477 8.21484H5.87477V20.4206H2.13477V8.21484Z" fill="#D9D9D9"/>
<path d="M4.0016 1.85646C3.57002 1.85463 3.14763 1.98267 2.78803 2.22434C2.42844 2.466 2.14787 2.8104 1.98191 3.21381C1.81595 3.61723 1.77211 4.06147 1.85593 4.49017C1.93975 4.91886 2.14746 5.31267 2.4527 5.62162C2.75794 5.93057 3.14695 6.14073 3.57035 6.22543C3.99376 6.31012 4.43247 6.26553 4.8308 6.09732C5.22913 5.9291 5.56913 5.64485 5.80764 5.28063C6.04615 4.91642 6.17243 4.48866 6.17043 4.05165C6.17019 3.46937 5.94158 2.91101 5.53487 2.49936C5.12816 2.08771 4.57665 1.85646 4.0016 1.85646Z" fill="#D9D9D9"/>
</svg>
