<svg width="24" height="23" viewBox="0 0 24 23" fill="none" xmlns="http://www.w3.org/2000/svg">
<path d="M21.6786 5.64836C20.9655 5.95843 20.2125 6.1643 19.4422 6.25977C20.2498 5.78287 20.8562 5.02191 21.1457 4.12173C20.3835 4.57203 19.5515 4.88859 18.685 5.05802C18.3193 4.67089 17.8799 4.36278 17.3934 4.15229C16.9069 3.94179 16.3833 3.83327 15.8542 3.83327C15.2754 3.83136 14.7035 3.9612 14.1808 4.2132C13.6581 4.46519 13.1981 4.83291 12.8346 5.28915C12.4712 5.7454 12.2136 6.27852 12.081 6.84911C11.9484 7.4197 11.9442 8.01316 12.0685 8.58565C10.5304 8.51312 9.02416 8.11561 7.64672 7.41864C6.26927 6.72166 5.05104 5.74065 4.07027 4.53861C3.57011 5.39006 3.41492 6.40452 3.63724 7.36929C3.85955 8.33406 4.44211 9.17422 5.26277 9.71361C4.64898 9.69663 4.04794 9.53241 3.50904 9.23444V9.27661C3.5152 10.176 3.828 11.0457 4.39453 11.7384C4.96106 12.4312 5.74653 12.9045 6.61805 13.0783C6.28587 13.1656 5.94382 13.2084 5.60064 13.2058C5.35421 13.2101 5.10802 13.1879 4.86621 13.1396C5.12319 13.9121 5.60931 14.5854 6.25822 15.0677C6.90712 15.55 7.6872 15.8178 8.49198 15.8345C7.11153 16.9077 5.41886 17.4877 3.67845 17.4838C3.36816 17.4857 3.05806 17.4677 2.75 17.4301C4.5302 18.5719 6.59575 19.1745 8.70304 19.1666C10.1449 19.1882 11.5765 18.9194 12.9149 18.376C14.2533 17.8325 15.4717 17.0252 16.4993 16.0009C17.5269 14.9766 18.3433 13.7557 18.901 12.4092C19.4586 11.0627 19.7465 9.61739 19.7479 8.15727C19.7479 7.98669 19.7422 7.8209 19.7337 7.65702C20.4972 7.11281 21.1563 6.43211 21.6786 5.64836Z" fill="#D9D9D9"/>
</svg>
